<svg width="226" height="34" viewBox="0 0 226 34" fill="none" xmlns="http://www.w3.org/2000/svg">
<path d="M11.3383 16.5049C11.3383 15.7622 11.708 14.6481 12.201 14.0292L22.1837 1.15568C13.5567 -1.93892 3.94371 2.64108 0.985868 11.4297C-2.09521 20.2184 2.46479 29.7497 11.2151 32.8443L11.3383 32.473V16.5049Z" fill="white"/>
<path d="M22.307 1.03189V17.3713C22.307 18.1141 21.9372 19.2281 21.4443 19.847L11.3383 32.8443C20.0886 35.8151 29.4551 31.1113 32.5362 22.4465C35.6172 13.6578 30.934 4.12649 22.307 1.03189ZM11.3383 32.8443V32.3492L11.2151 32.7205C11.3383 32.8443 11.3383 32.8443 11.3383 32.8443Z" fill="white"/>
<path d="M49.1739 27.0265C48.9274 27.0265 48.8042 27.0265 48.681 26.9027C48.681 26.9027 48.5577 26.7789 48.5577 26.4076V10.4395H43.135C42.8885 10.4395 42.7653 10.4395 42.642 10.3157C42.5188 10.1919 42.5188 10.0681 42.5188 9.94432V8.45892C42.5188 8.21135 42.5188 8.08756 42.642 7.96378C42.7653 7.84 42.8885 7.84 43.135 7.84H57.308C57.5545 7.84 57.6777 7.84 57.801 7.96378C57.801 8.08756 57.9242 8.33513 57.9242 8.45892V9.94432C57.9242 10.0681 57.9242 10.3157 57.801 10.3157C57.801 10.3157 57.6777 10.4395 57.308 10.4395H51.5156V26.4076C51.5156 26.6551 51.3923 26.7789 51.3923 26.9027C51.2691 27.0265 51.1458 27.0265 50.8993 27.0265H49.1739Z" fill="white"/>
<path d="M61.6214 33.8346C61.4981 33.8346 61.3749 33.8346 61.2517 33.7108C61.1284 33.7108 61.1284 33.587 61.1284 33.3395V9.3254C61.1284 9.07783 61.2517 8.83026 61.4982 8.83026C62.7306 8.33513 63.963 7.96378 65.1954 7.71621C66.4279 7.59243 67.6603 7.46864 68.8927 7.46864C70.3717 7.46864 71.6041 7.71621 72.7133 8.21135C73.8225 8.70648 74.6852 9.44918 75.3014 10.3157C76.0408 11.1822 76.5338 12.2962 76.7803 13.4103C77.15 14.6481 77.2733 16.0097 77.2733 17.3713C77.2733 18.733 77.15 20.0946 76.7803 21.2086C76.4106 22.4465 75.9176 23.4368 75.1781 24.427C74.4387 25.2935 73.576 26.0362 72.59 26.5313C71.4809 27.0265 70.2484 27.274 68.8927 27.274C68.2765 27.274 67.4138 27.274 66.6744 27.1503C65.9349 27.0265 65.0722 26.9027 64.2095 26.6551H64.0863V33.3395C64.0863 33.587 64.0863 33.7108 63.963 33.7108C63.963 33.7108 63.8398 33.8346 63.5933 33.8346H61.6214ZM68.3998 10.0681C67.7836 10.0681 67.0441 10.1919 66.1814 10.1919C65.4419 10.4395 64.7025 10.5632 64.0863 10.8108V24.0557H64.2095C65.1954 24.3032 65.9349 24.5508 66.6744 24.5508C67.2906 24.6746 67.9068 24.6746 68.523 24.6746C69.3857 24.6746 70.1252 24.5508 70.8646 24.3032C71.6041 24.0557 72.2203 23.5605 72.7133 23.0654C73.2063 22.4465 73.576 21.7038 73.9457 20.8373C74.1922 19.847 74.3154 18.733 74.3154 17.3713C74.3154 16.0097 74.1922 14.8957 73.9457 13.9054C73.6992 12.9151 73.3295 12.1724 72.7133 11.6773C72.2203 11.0584 71.6041 10.687 70.8646 10.4395C70.0019 10.1919 69.2625 10.0681 68.3998 10.0681Z" fill="white"/>
<path d="M87.6259 27.3978C86.0237 27.3978 84.7913 27.274 83.8054 26.9027C82.8194 26.5313 81.9567 26.16 81.4637 25.5411C80.8475 25.0459 80.4778 24.3032 80.2313 23.6843C79.9848 22.9416 79.8616 22.1989 79.8616 21.3324C79.8616 20.4659 79.9848 19.7232 80.2313 18.8568C80.4778 18.114 80.9708 17.3713 81.587 16.7524C82.2032 16.1335 83.0659 15.6384 84.0518 15.267C85.0378 14.8957 86.2702 14.7719 87.7491 14.7719H92.3091V13.9054C92.3091 13.2865 92.3091 12.7913 92.1859 12.2962C92.0627 11.8011 91.8162 11.4297 91.5697 11.0584C91.2 10.8108 90.707 10.5632 90.0908 10.3157C89.4745 10.1919 88.7351 10.0681 87.8724 10.0681C87.0097 10.0681 86.147 10.1919 85.161 10.3157C84.1751 10.4395 83.4356 10.687 82.8194 10.8108C82.6962 10.8108 82.5729 10.9346 82.4497 10.9346C82.3264 10.9346 82.2032 10.8108 82.2032 10.687L81.7102 9.07783C81.7102 8.95405 81.7102 8.83026 81.7102 8.83026C81.7102 8.70648 81.8335 8.70648 81.9567 8.5827C82.8194 8.21135 83.9286 7.96378 85.161 7.71621C86.3935 7.59243 87.5027 7.46864 88.4886 7.46864C90.8302 7.46864 92.6789 7.96378 93.7881 9.07783C94.8972 10.1919 95.3902 11.6773 95.3902 13.7816V25.2935C95.3902 25.7886 95.267 26.0362 94.8972 26.16C93.7881 26.6551 92.5556 27.0265 91.3232 27.1503C90.0908 27.274 88.8583 27.3978 87.6259 27.3978ZM87.8724 17.4951C87.3794 17.4951 86.8864 17.4951 86.3935 17.6189C85.7772 17.7427 85.2843 17.8665 84.7913 18.114C84.2983 18.3616 83.8053 18.733 83.4356 19.2281C83.0659 19.7232 82.9427 20.4659 82.9427 21.3324C82.9427 21.9513 83.0659 22.5703 83.3124 23.0654C83.5589 23.5605 83.9286 23.9319 84.2983 24.1795C84.6681 24.427 85.2843 24.6746 85.7772 24.7984C86.3935 24.9222 87.0097 24.9222 87.6259 24.9222C87.8724 24.9222 88.1189 24.9222 88.4886 24.9222C88.8583 24.9222 89.2281 24.9222 89.721 24.7984C90.0908 24.7984 90.5837 24.6746 91.0767 24.5508C91.5697 24.427 91.9394 24.3032 92.3091 24.1795V17.4951H87.8724Z" fill="white"/>
<path d="M113.261 27.0265C113.014 27.0265 112.891 27.0265 112.768 26.9027C112.644 26.7789 112.644 26.6551 112.644 26.4076V17.9903H103.031V26.4076C103.031 26.6551 103.031 26.7789 102.908 26.9027C102.785 27.0265 102.662 27.0265 102.415 27.0265H100.69C100.443 27.0265 100.32 27.0265 100.197 26.9027C100.073 26.7789 100.073 26.6551 100.073 26.4076V8.45892C100.073 8.33513 100.073 8.08756 100.197 7.96378C100.32 7.84 100.443 7.84 100.69 7.84H102.292C102.538 7.84 102.662 7.84 102.785 7.96378C102.785 7.96378 102.908 8.08756 102.908 8.45892V15.5146H112.521V8.45892C112.521 8.21135 112.521 8.08756 112.644 7.96378C112.768 7.84 112.891 7.84 113.137 7.84H114.986C115.356 7.84 115.479 7.84 115.479 7.96378C115.479 7.96378 115.602 8.08756 115.602 8.45892V26.4076C115.602 26.7789 115.479 26.7789 115.479 26.9027C115.479 26.9027 115.356 27.0265 114.986 27.0265H113.261Z" fill="white"/>
<path d="M127.68 27.3978C125.092 27.3978 122.997 26.5313 121.641 24.9222C120.285 23.313 119.546 20.8373 119.546 17.6189C119.546 16.0097 119.792 14.6481 120.162 13.4103C120.532 12.1724 121.148 11.0584 121.888 10.1919C122.627 9.3254 123.49 8.5827 124.599 8.21135C125.708 7.71621 126.817 7.46864 128.173 7.46864C129.159 7.46864 130.022 7.59243 131.008 7.71621C131.87 7.96378 132.733 8.21135 133.596 8.70648C133.719 8.83026 133.842 8.95405 133.842 8.95405C133.842 9.07783 133.842 9.20162 133.719 9.3254L132.979 10.8108C132.856 10.9346 132.856 11.0584 132.733 11.0584C132.61 11.0584 132.61 11.0584 132.486 10.9346C131.87 10.687 131.254 10.4395 130.515 10.3157C129.775 10.1919 129.036 10.0681 128.296 10.0681C127.31 10.0681 126.448 10.3157 125.708 10.687C124.969 11.0584 124.352 11.6773 123.983 12.2962C123.49 13.0389 123.243 13.7816 122.997 14.6481C122.75 15.5146 122.627 16.5049 122.627 17.4951C122.627 18.4854 122.75 19.3519 122.873 20.2184C122.997 21.0849 123.366 21.8276 123.736 22.4465C124.106 23.0654 124.722 23.6843 125.462 24.0557C126.201 24.427 127.064 24.6746 128.173 24.6746C129.036 24.6746 129.775 24.5508 130.638 24.3032C131.377 24.0557 132.117 23.8081 132.61 23.5605C132.733 23.4367 132.856 23.4368 132.979 23.4368C133.103 23.5605 133.226 23.5605 133.226 23.6843L133.965 25.1697C134.089 25.4173 134.089 25.6649 133.842 25.7886C132.979 26.2838 131.87 26.6551 130.884 26.7789C129.652 27.274 128.666 27.3978 127.68 27.3978Z" fill="white"/>
<path d="M147.152 33.8346C146.659 33.8346 146.413 33.587 146.413 33.2157V27.3978H146.29C144.811 27.2741 142.592 27.0265 141.36 26.4076C140.127 25.9124 139.141 25.1697 138.279 24.3032C137.416 23.4368 136.8 22.3227 136.307 21.2086C135.814 19.9708 135.691 18.733 135.691 17.2476C135.691 15.7622 135.937 14.2768 136.553 13.0389C137.046 11.8011 137.786 10.8108 138.772 9.94432C139.634 9.07784 140.744 8.45892 141.976 7.96378C143.209 7.46865 145.18 7.22108 146.536 7.22108H146.659V4.99297C146.659 4.62162 146.659 4.49784 146.783 4.49784C146.783 4.49784 146.906 4.37405 147.522 4.37405H152.329C152.821 4.37405 153.068 4.62162 153.068 4.99297V7.46865H153.191C154.547 7.46865 156.642 7.71622 157.751 8.21135C158.984 8.70649 159.97 9.32541 160.832 10.1919C161.695 11.0584 162.434 12.0486 162.927 13.2865C163.42 14.5243 163.667 15.8859 163.667 17.3714C163.667 18.733 163.42 20.0946 163.051 21.3324C162.681 22.5703 162.065 23.5605 161.202 24.427C160.339 25.2935 159.353 26.0362 158.121 26.5314C156.889 27.1503 154.67 27.3978 153.068 27.5216H152.945V33.2157C152.945 33.587 152.945 33.7108 152.821 33.7108C152.821 33.7108 152.698 33.8346 152.082 33.8346H147.152ZM152.821 22.6941C154.177 22.4465 155.779 21.9514 156.272 20.9611C156.765 20.0946 157.012 18.9805 157.012 17.7427C157.012 16.3811 156.765 15.1432 156.149 14.4005C155.656 13.6578 154.054 13.0389 152.821 12.9151H152.698V22.6941H152.821ZM146.413 12.6676C145.18 12.7914 143.701 13.2865 143.085 14.153C142.469 15.0195 142.223 16.1335 142.223 17.6189C142.223 18.2378 142.346 18.8568 142.469 19.3519C142.592 19.9708 142.839 20.4659 143.085 20.8373C143.332 21.3324 143.701 21.7038 144.194 21.9514C144.687 22.1989 145.797 22.4465 146.536 22.5703H146.659L146.413 12.6676Z" fill="white"/>
<path d="M147.152 33.8346C146.659 33.8346 146.413 33.587 146.413 33.2157V27.3978H146.29C144.811 27.2741 142.592 27.0265 141.36 26.4076C140.127 25.9124 139.141 25.1697 138.279 24.3032C137.416 23.4368 136.8 22.3227 136.307 21.2086C135.814 19.9708 135.691 18.733 135.691 17.2476C135.691 15.7622 135.937 14.2768 136.553 13.0389C137.046 11.8011 137.786 10.8108 138.772 9.94432C139.634 9.07784 140.744 8.45892 141.976 7.96378C143.209 7.46865 145.18 7.22108 146.536 7.22108H146.659V4.99297C146.659 4.62162 146.659 4.49784 146.783 4.49784C146.783 4.49784 146.906 4.37405 147.522 4.37405H152.329C152.821 4.37405 153.068 4.62162 153.068 4.99297V7.46865H153.191C154.547 7.46865 156.642 7.71622 157.751 8.21135C158.984 8.70649 159.97 9.32541 160.832 10.1919C161.695 11.0584 162.434 12.0486 162.927 13.2865C163.42 14.5243 163.667 15.8859 163.667 17.3714C163.667 18.733 163.42 20.0946 163.051 21.3324C162.681 22.5703 162.065 23.5605 161.202 24.427C160.339 25.2935 159.353 26.0362 158.121 26.5314C156.889 27.1503 154.67 27.3978 153.068 27.5216H152.945V33.2157C152.945 33.587 152.945 33.7108 152.821 33.7108C152.821 33.7108 152.698 33.8346 152.082 33.8346H147.152ZM152.821 22.6941C154.177 22.4465 155.779 21.9514 156.272 20.9611C156.765 20.0946 157.012 18.9805 157.012 17.7427C157.012 16.3811 156.765 15.1432 156.149 14.4005C155.656 13.6578 154.054 13.0389 152.821 12.9151H152.698V22.6941H152.821ZM146.413 12.6676C145.18 12.7914 143.701 13.2865 143.085 14.153C142.469 15.0195 142.223 16.1335 142.223 17.6189C142.223 18.2378 142.346 18.8568 142.469 19.3519C142.592 19.9708 142.839 20.4659 143.085 20.8373C143.332 21.3324 143.701 21.7038 144.194 21.9514C144.687 22.1989 145.797 22.4465 146.536 22.5703H146.659L146.413 12.6676Z" fill="white"/>
<path d="M165.639 28.0168C165.516 28.0168 165.392 28.0167 165.392 27.893C165.269 27.7692 165.146 27.6454 165.023 27.3978L163.79 24.0557C163.667 23.6843 163.544 23.4368 163.544 23.313C163.544 23.1892 163.667 22.9416 164.037 22.8178C164.16 22.8178 164.283 22.694 164.283 22.694C165.023 22.4465 166.132 22.0751 166.871 20.5897C167.118 20.0946 167.118 19.3519 167.241 18.6092V18.114C167.364 17.1238 167.487 15.7622 167.487 14.2768L167.611 10.0681C167.611 9.20162 167.734 8.70648 168.104 8.33513C168.35 7.96378 168.966 7.84 169.952 7.84H180.675C181.537 7.84 182.153 7.96378 182.523 8.33513C182.893 8.70648 183.016 9.3254 183.016 10.0681V26.16C183.016 26.5313 182.893 26.6551 182.893 26.7789C182.893 26.7789 182.646 26.9027 182.277 26.9027H177.347C176.854 26.9027 176.731 26.7789 176.731 26.7789C176.607 26.6551 176.607 26.5313 176.607 26.2838V12.9151H173.526V14.4005C173.403 16.2573 173.28 17.9903 173.157 19.4757C173.033 20.9611 172.664 22.1989 172.171 23.313C171.678 24.427 170.938 25.2935 170.076 26.0362C169.09 26.7789 167.857 27.3978 166.255 28.0168C165.885 28.0168 165.762 28.0168 165.639 28.0168Z" fill="white"/>
<path d="M194.601 27.3978C192.876 27.3978 191.397 27.1503 190.164 26.6551C188.932 26.16 187.946 25.5411 187.206 24.6746C186.467 23.8081 185.851 22.8178 185.604 21.58C185.235 20.3422 185.111 18.9805 185.111 17.3714C185.111 15.8859 185.358 14.4005 185.728 13.1627C186.097 11.9249 186.713 10.8108 187.576 9.94433C188.316 9.07784 189.425 8.45892 190.534 7.96379C191.766 7.46865 193.122 7.22108 194.724 7.22108C197.929 7.22108 200.27 8.08757 201.872 9.94433C203.475 11.6773 204.214 14.153 204.214 17.2476C204.214 20.3422 203.475 22.9416 201.872 24.6746C200.27 26.5314 197.805 27.3978 194.601 27.3978ZM194.601 12.7914C192.752 12.7914 191.766 14.2768 191.766 17.2476C191.766 18.8568 192.013 20.0946 192.506 20.7135C192.999 21.4562 193.738 21.8276 194.601 21.8276C195.587 21.8276 196.203 21.4562 196.696 20.5897C197.189 19.847 197.436 18.733 197.436 17.2476C197.436 14.4005 196.573 12.7914 194.601 12.7914Z" fill="white"/>
<path d="M210.992 33.8346C210.376 33.8346 209.637 33.8346 209.02 33.7108C208.281 33.587 207.665 33.4632 207.048 33.2157C206.679 33.0919 206.432 32.9681 206.432 32.9681C206.432 32.9681 206.309 32.8443 206.432 32.3492L207.172 28.6357C207.295 28.1405 207.418 28.1405 207.418 28.1405C207.541 28.1405 207.788 28.1405 208.034 28.1405H208.158C208.527 28.2643 209.637 28.3881 210.623 28.3881C211.239 28.3881 211.732 28.2643 212.101 28.1405C212.841 27.7692 213.211 25.9124 213.211 25.7887V25.6649H211.732C211.115 25.6649 210.746 25.5411 210.499 25.2935C210.253 25.046 210.13 24.6746 209.883 24.0557L204.46 8.33514C204.337 8.08757 204.337 7.84001 204.46 7.71622C204.584 7.59244 204.707 7.59244 204.953 7.59244H210.13C210.746 7.59244 210.992 7.71622 211.115 7.71622C211.239 7.71622 211.362 7.96379 211.485 8.33514L213.087 14.0292L214.566 19.9708H214.936L216.415 13.9054L217.894 8.45892C218.017 8.08757 218.14 7.84001 218.264 7.71622C218.387 7.59244 218.633 7.59244 219.126 7.59244H224.795C224.919 7.59244 225.165 7.59244 225.165 7.71622C225.165 7.84001 225.165 7.96379 225.165 8.08757L218.14 28.7595C217.647 30.3687 216.785 31.6065 215.675 32.3492C214.443 33.4632 212.964 33.8346 210.992 33.8346Z" fill="white"/>
</svg>
